<?xml version="1.0" encoding="utf-8"?>
<svg width="69" height="69" viewBox="0 0 1024 1024" version="1.1" xmlns:xlink="http://www.w3.org/1999/xlink" xmlns="http://www.w3.org/2000/svg">
  <defs>
    <path d="M1024 0L1024 0L1024 1024L0 1024L0 0L1024 0Z" id="path_1" />
    <clipPath id="clip_1">
      <use xlink:href="#path_1" clip-rule="evenodd" fill-rule="evenodd" />
    </clipPath>
  </defs>
  <g id="RTWK-LDHY-Logo">
    <path d="M1024 0L1024 0L1024 1024L0 1024L0 0L1024 0Z" id="RTWK-LDHY-Logo" fill="none" stroke="none" />
    <path d="M440.673 12L404.428 122.765C349.6 137.886 299.458 164.223 256.629 199.237L282.358 143.31L237.135 118.708C222.154 110.574 203.613 113.261 191.575 125.319L108.004 208.852L160.813 313.044C133.791 360.636 115.947 414.117 110.22 471.247L88.9231 413.668L39.5691 428.279C23.223 433.105 12 448.124 12 465.163L12 583.327L122.765 619.572C137.886 674.4 164.223 724.541 199.237 767.371L143.31 741.642L118.708 786.865C110.574 801.845 113.261 820.387 125.319 832.425L208.852 915.996L313.044 863.187C360.636 890.209 414.117 908.053 471.247 913.78L413.668 935.077L428.279 984.431C433.105 1000.78 448.124 1012 465.163 1012L583.327 1012L619.572 901.235C674.4 886.113 724.541 859.777 767.371 824.763L741.642 880.69L786.865 905.292C801.845 913.426 820.387 910.739 832.425 898.681L915.996 815.147L863.187 710.956C890.209 663.364 908.053 609.883 913.78 552.753L935.077 610.332L984.431 595.721C1000.78 590.894 1012 575.876 1012 558.837L1012 440.673L901.235 404.428C886.113 349.6 859.777 299.458 824.763 256.629L880.69 282.358L905.292 237.135C913.426 222.154 910.739 203.613 898.681 191.575L815.147 108.004L710.956 160.813C663.364 133.791 609.883 115.947 552.753 110.22L610.332 88.9231L595.721 39.5691C590.894 23.223 575.876 12 558.837 12L440.673 12L440.673 12ZM512 204.307C681.942 204.307 819.692 342.057 819.692 512C819.692 681.923 681.942 819.692 512 819.692C342.057 819.692 204.307 681.923 204.307 512C204.307 342.057 342.057 204.307 512 204.307L512 204.307Z" id="Shape" fill="#FF9933" fill-rule="evenodd" stroke="none" clip-path="url(#clip_1)" />
    <path d="M269.474 452.716L296.421 452.716L296.421 614.4L269.474 614.4C262.324 614.409 255.465 611.572 250.41 606.517C245.354 601.461 242.518 594.602 242.526 587.453L242.526 479.663C242.517 472.515 245.353 465.656 250.409 460.6C255.464 455.544 262.323 452.708 269.473 452.716L269.474 452.716ZM700.632 412.295L700.632 641.347C700.603 671.1 676.49 695.212 646.737 695.242L377.263 695.242C347.51 695.213 323.398 671.1 323.368 641.347L323.368 412.295C323.36 394.437 330.453 377.297 343.086 364.659C355.719 352.022 372.857 344.923 390.726 344.926L485.053 344.926L485.053 291.032C485.053 276.149 497.117 264.084 512 264.084C526.883 264.084 538.947 276.149 538.947 291.032L538.947 344.926L633.263 344.926C651.132 344.921 668.271 352.016 680.906 364.652C693.542 377.287 700.637 394.426 700.632 412.295L700.632 412.295ZM464.842 479.663C464.842 461.06 449.761 445.979 431.158 445.979C412.555 445.979 397.474 461.06 397.474 479.663C397.474 498.266 412.555 513.347 431.158 513.347C440.092 513.348 448.66 509.799 454.977 503.482C461.294 497.165 464.843 488.597 464.842 479.663L464.842 479.663ZM458.105 587.453L404.211 587.453L404.211 614.4L458.105 614.4L458.105 587.453ZM538.947 587.453L485.053 587.453L485.053 614.4L538.947 614.4L538.947 587.453ZM626.526 479.663C626.526 461.06 611.445 445.979 592.842 445.979C574.239 445.979 559.158 461.06 559.158 479.663C559.158 498.266 574.239 513.347 592.842 513.347C601.776 513.348 610.344 509.799 616.661 503.482C622.978 497.165 626.527 488.597 626.526 479.663L626.526 479.663ZM619.789 587.453L565.895 587.453L565.895 614.4L619.789 614.4L619.789 587.453ZM781.474 479.663L781.474 587.453C781.483 594.601 778.647 601.46 773.591 606.516C768.536 611.572 761.677 614.408 754.528 614.4L727.579 614.4L727.579 452.716L754.526 452.716C761.676 452.707 768.535 455.544 773.59 460.599C778.646 465.654 781.482 472.514 781.474 479.663L781.474 479.663Z" id="Shape" fill="#FF9933" fill-rule="evenodd" stroke="none" clip-path="url(#clip_1)" />
  </g>
</svg>