<?xml version="1.0" encoding="utf-8"?>
<svg width="150px" height="150px" viewBox="0 0 150 150" version="1.1" xmlns:xlink="http://www.w3.org/1999/xlink" xmlns="http://www.w3.org/2000/svg">
  <defs>
    <path d="M150 0L150 0L150 150L0 150L0 0L150 0Z" id="path_1" />
    <clipPath id="clip_1">
      <use xlink:href="#path_1" clip-rule="evenodd" fill-rule="evenodd" />
    </clipPath>
  </defs>
  <g id="RTWK-LDHY-Logo">
    <path d="M150 0L150 0L150 150L0 150L0 0L150 0Z" id="RTWK-LDHY-Logo" fill="none" stroke="none" />
    <path d="M64.5518 1.75781L59.2424 17.9831C51.211 20.1982 43.866 24.0561 37.5921 29.1851L41.361 20.9927L34.7366 17.3889C32.5422 16.1973 29.8262 16.591 28.0627 18.3572L15.8208 30.5936L23.5566 45.8561C19.5983 52.8275 16.9844 60.6617 16.1455 69.0304L13.0258 60.5959L5.79626 62.7361C3.4018 63.4432 1.75781 65.6432 1.75781 68.1391L1.75781 85.4482L17.9831 90.7576C20.1982 98.789 24.0561 106.134 29.1851 112.408L20.9927 108.639L17.3889 115.263C16.1973 117.458 16.591 120.174 18.3572 121.937L30.5936 134.179L45.8561 126.443C52.8275 130.402 60.6617 133.016 69.0304 133.855L60.5959 136.974L62.7361 144.204C63.4432 146.598 65.6432 148.242 68.1391 148.242L85.4482 148.242L90.7576 132.017C98.789 129.802 106.134 125.944 112.408 120.815L108.639 129.007L115.263 132.611C117.458 133.803 120.174 133.409 121.937 131.643L134.179 119.406L126.443 104.144C130.402 97.1725 133.016 89.3383 133.855 80.9696L136.974 89.4042L144.204 87.2639C146.598 86.5568 148.242 84.3568 148.242 81.861L148.242 64.5518L132.017 59.2424C129.802 51.211 125.944 43.866 120.815 37.5921L129.007 41.361L132.611 34.7366C133.803 32.5422 133.409 29.8262 131.643 28.0627L119.406 15.8208L104.144 23.5566C97.1725 19.5983 89.3383 16.9844 80.9696 16.1455L89.4042 13.0258L87.2639 5.79626C86.5568 3.4018 84.3568 1.75781 81.861 1.75781L64.5518 1.75781L64.5518 1.75781ZM75 29.9279C99.8939 29.9279 120.072 50.1061 120.072 75C120.072 99.8911 99.8939 120.072 75 120.072C50.1061 120.072 29.9279 99.8911 29.9279 75C29.9279 50.1061 50.1061 29.9279 75 29.9279L75 29.9279Z" id="Shape" fill="#FF9933" fill-rule="evenodd" stroke="none" clip-path="url(#clip_1)" />
    <path d="M75 36.1816C53.5942 36.1816 36.1816 53.5942 36.1816 75C36.1816 96.4058 53.5942 113.818 75 113.818C96.4058 113.818 113.818 96.4058 113.818 75C113.818 53.5942 96.4058 36.1816 75 36.1816L75 36.1816ZM87.4604 42.9458C87.2309 43.7543 87.1112 44.2271 86.9626 44.6929C86.6352 45.7225 86.2932 46.7456 85.9539 47.7718C85.6299 48.7523 85.6303 48.7538 84.5299 48.8365C84.8489 49.0762 85.0972 49.2624 85.4331 49.5156C84.7428 50.4556 84.661 51.9829 82.8652 51.7736C83.1521 51.939 83.4393 52.1044 83.8376 52.334C83.4765 52.9669 83.2478 53.7148 82.7465 54.1536C82.2875 54.5536 81.5322 54.6181 80.8841 54.8392C81.0967 54.9844 81.3496 55.1588 81.6719 55.3798C80.9546 56.7486 80.3924 58.1993 78.3755 58.4356C78.816 58.6381 79.0444 58.7414 79.2688 58.8444C79.0918 59.9906 77.983 61.0934 76.8856 61.498C76.8842 61.4985 76.8836 61.5008 76.8823 61.5013L88.5021 61.5013C91.2936 61.5013 93.5653 63.773 93.5653 66.5645L93.5653 83.4421C93.5653 86.2336 91.2936 88.5053 88.5021 88.5053L61.498 88.5053C58.7064 88.5053 56.4347 86.2336 56.4347 83.4421L56.4347 66.5612C56.4347 63.7697 58.7064 61.498 61.498 61.498L75.389 61.498C75.3721 61.4895 75.3531 61.4899 75.3362 61.4815C76.651 56.079 79.3393 51.3538 82.5916 46.9015C78.9005 51.1175 76.3811 55.992 74.6275 61.3068C73.6351 60.6334 73.052 58.5576 73.6089 57.6412C73.7372 57.4302 74.1318 57.3754 74.3968 57.2522C73.6913 56.2564 73.6864 55.004 74.4594 53.5306C74.7851 53.7078 75.107 53.887 75.4648 54.0811C74.1619 51.8971 76.3422 50.8396 76.8097 49.1299C77.2435 49.378 77.4913 49.5217 78.0162 49.8221C76.7977 48.1968 77.963 47.4031 78.7579 46.5356C79.2406 46.009 80.1219 45.2724 80.716 44.8808L82.0114 45.728L81.8433 44.304C82.0104 44.0272 82.3534 43.8362 82.8125 43.7502C84.269 43.4784 85.7304 43.2429 87.4604 42.9458L87.4604 42.9458ZM75.389 61.498C75.8126 61.7275 76.3455 61.6971 76.8856 61.498L75.389 61.498L75.389 61.498ZM66.5612 69.9367C64.697 69.9367 63.1857 71.448 63.1857 73.3122C63.1857 75.1765 64.697 76.6878 66.5612 76.6878C68.4255 76.6878 69.9367 75.1765 69.9367 73.3122C69.9367 71.448 68.4255 69.9367 66.5612 69.9367L66.5612 69.9367ZM83.4388 69.9367C81.5745 69.9367 80.0633 71.448 80.0633 73.3122C80.0633 75.1765 81.5745 76.6878 83.4388 76.6878C85.303 76.6878 86.8143 75.1765 86.8143 73.3122C86.8143 71.448 85.303 69.9367 83.4388 69.9367L83.4388 69.9367ZM58.1225 91.8775L91.8776 91.8775C92.8109 91.8775 93.5653 92.632 93.5653 93.5653L93.5653 105.132C88.6101 108.197 82.8582 110.065 76.6878 110.357L76.6878 100.316C76.6878 99.383 75.9333 98.6286 75 98.6286L59.8102 98.6286L59.8102 106.975C58.649 106.42 57.5233 105.807 56.4347 105.136L56.4347 93.5653C56.4347 92.632 57.1891 91.8775 58.1225 91.8775L58.1225 91.8775ZM53.0592 96.9408C53.9925 96.9408 54.7469 97.6952 54.7469 98.6286L54.7469 103.692C54.7469 103.8 54.7046 103.895 54.6843 103.998C53.5231 103.182 52.4246 102.288 51.3714 101.342L51.3714 98.6286C51.3714 97.6952 52.1259 96.9408 53.0592 96.9408L53.0592 96.9408ZM96.9408 96.9408C97.8742 96.9408 98.6286 97.6952 98.6286 98.6286L98.6286 101.342C97.5754 102.288 96.4769 103.182 95.3157 103.998C95.2954 103.894 95.2531 103.8 95.2531 103.692L95.2531 98.6286C95.2531 97.6952 96.0075 96.9408 96.9408 96.9408L96.9408 96.9408ZM83.4388 98.6286C81.5745 98.6286 80.0633 100.14 80.0633 102.004C80.0633 103.868 81.5745 105.38 83.4388 105.38C85.303 105.38 86.8143 103.868 86.8143 102.004C86.8143 100.14 85.303 98.6286 83.4388 98.6286L83.4388 98.6286Z" id="Shape" fill="#FF9933" fill-rule="evenodd" stroke="none" clip-path="url(#clip_1)" />
  </g>
</svg>