<?xml version="1.0" encoding="utf-8"?>
<svg width="150px" height="150px" viewBox="0 0 150 150" version="1.1" xmlns:xlink="http://www.w3.org/1999/xlink" xmlns="http://www.w3.org/2000/svg">
  <defs>
    <path d="M150 0L150 0L150 150L0 150L0 0L150 0Z" id="path_1" />
    <clipPath id="clip_1">
      <use xlink:href="#path_1" clip-rule="evenodd" fill-rule="evenodd" />
    </clipPath>
  </defs>
  <g id="RTWK-LDHY-Logo">
    <path d="M150 0L150 0L150 150L0 150L0 0L150 0Z" id="RTWK-LDHY-Logo" fill="none" stroke="none" />
    <path d="M64.5518 1.75781L59.2424 17.9831C51.211 20.1982 43.866 24.0561 37.5921 29.1851L41.361 20.9927L34.7366 17.3889C32.5422 16.1973 29.8262 16.591 28.0627 18.3572L15.8208 30.5936L23.5566 45.8561C19.5982 52.8275 16.9844 60.6617 16.1455 69.0304L13.0258 60.5958L5.79626 62.7361C3.4018 63.4432 1.75781 65.6432 1.75781 68.139L1.75781 85.4482L17.9831 90.7576C20.1982 98.789 24.0561 106.134 29.1851 112.408L20.9927 108.639L17.3889 115.263C16.1973 117.458 16.591 120.174 18.3572 121.937L30.5936 134.179L45.8561 126.443C52.8275 130.402 60.6617 133.016 69.0304 133.855L60.5958 136.974L62.7361 144.204C63.4432 146.598 65.6432 148.242 68.139 148.242L85.4482 148.242L90.7576 132.017C98.789 129.802 106.134 125.944 112.408 120.815L108.639 129.007L115.263 132.611C117.458 133.803 120.174 133.409 121.937 131.643L134.179 119.406L126.443 104.144C130.402 97.1724 133.016 89.3383 133.855 80.9696L136.974 89.4041L144.204 87.2639C146.598 86.5568 148.242 84.3568 148.242 81.8609L148.242 64.5518L132.017 59.2424C129.802 51.211 125.944 43.866 120.815 37.5921L129.007 41.361L132.611 34.7366C133.803 32.5422 133.409 29.8262 131.643 28.0627L119.406 15.8208L104.144 23.5566C97.1724 19.5982 89.3383 16.9844 80.9696 16.1455L89.4041 13.0258L87.2639 5.79626C86.5568 3.4018 84.3568 1.75781 81.8609 1.75781L64.5518 1.75781L64.5518 1.75781ZM74.9999 29.9278C99.8938 29.9278 120.072 50.1061 120.072 74.9999C120.072 99.891 99.8938 120.072 74.9999 120.072C50.1061 120.072 29.9278 99.891 29.9278 74.9999C29.9278 50.1061 50.1061 29.9278 74.9999 29.9278L74.9999 29.9278Z" id="Shape" fill="#FF9933" fill-rule="evenodd" stroke="none" clip-path="url(#clip_1)" />
    <path d="M39.4737 66.3158L43.4211 66.3158L43.4211 90L39.4737 90C38.4264 90.0013 37.4216 89.5858 36.6811 88.8452C35.9405 88.1047 35.5251 87.0999 35.5263 86.0526L35.5263 70.2632C35.525 69.216 35.9404 68.2113 36.681 67.4707C37.4215 66.7301 38.4262 66.3146 39.4735 66.3158L39.4737 66.3158ZM102.632 60.3947L102.632 93.9474C102.627 98.3056 99.0953 101.838 94.7369 101.842L55.2632 101.842C50.9048 101.838 47.3727 98.3057 47.3684 93.9474L47.3684 60.3947C47.3671 57.7788 48.4062 55.2681 50.2567 53.4169C52.1073 51.5657 54.6177 50.5259 57.2352 50.5263L71.0526 50.5263L71.0526 42.6316C71.0526 40.4515 72.8199 38.6842 75 38.6842C77.1801 38.6842 78.9474 40.4515 78.9474 42.6316L78.9474 50.5263L92.7632 50.5263C95.3807 50.5255 97.8912 51.5649 99.7421 53.4158C101.593 55.2666 102.632 57.7772 102.632 60.3947L102.632 60.3947ZM68.0921 70.2632C68.0921 67.5381 65.883 65.3289 63.1579 65.3289C60.4328 65.3289 58.2237 67.5381 58.2237 70.2632C58.2237 72.9883 60.4328 75.1974 63.1579 75.1974C64.4666 75.1975 65.7216 74.6776 66.647 73.7523C67.5724 72.8269 68.0922 71.5718 68.0921 70.2632L68.0921 70.2632ZM67.1053 86.0526L59.2105 86.0526L59.2105 90L67.1053 90L67.1053 86.0526ZM78.9474 86.0526L71.0526 86.0526L71.0526 90L78.9474 90L78.9474 86.0526ZM91.7763 70.2632C91.7763 67.5381 89.5672 65.3289 86.8421 65.3289C84.117 65.3289 81.9079 67.5381 81.9079 70.2632C81.9079 72.9883 84.117 75.1974 86.8421 75.1974C88.1508 75.1975 89.4059 74.6776 90.3312 73.7523C91.2566 72.8269 91.7764 71.5718 91.7763 70.2632L91.7763 70.2632ZM90.7895 86.0526L82.8947 86.0526L82.8947 90L90.7895 90L90.7895 86.0526ZM114.474 70.2632L114.474 86.0526C114.475 87.0998 114.06 88.1045 113.319 88.8451C112.579 89.5857 111.574 90.0012 110.526 90L106.579 90L106.579 66.3158L110.526 66.3158C111.574 66.3145 112.578 66.73 113.319 67.4706C114.059 68.2111 114.475 69.2159 114.474 70.2632L114.474 70.2632Z" id="Shape" fill="#FF9933" fill-rule="evenodd" stroke="none" clip-path="url(#clip_1)" />
  </g>
</svg>