<?xml version="1.0" encoding="utf-8"?>
<svg width="80" height="80" viewBox="0 0 1024 1024" version="1.1" xmlns:xlink="http://www.w3.org/1999/xlink" xmlns="http://www.w3.org/2000/svg">
  <defs>
    <path d="M1024 0L1024 0L1024 1024L0 1024L0 0L1024 0Z" id="path_1" />
    <clipPath id="clip_1">
      <use xlink:href="#path_1" clip-rule="evenodd" fill-rule="evenodd" />
    </clipPath>
  </defs>
  <g id="RTWK-LDHY-Logo">
    <path d="M1024 0L1024 0L1024 1024L0 1024L0 0L1024 0Z" id="RTWK-LDHY-Logo" fill="none" stroke="none" />
    <path d="M440.673 12L404.428 122.765C349.6 137.886 299.458 164.223 256.629 199.237L282.358 143.31L237.135 118.708C222.154 110.574 203.613 113.261 191.575 125.319L108.004 208.852L160.813 313.044C133.791 360.636 115.947 414.117 110.22 471.247L88.9231 413.668L39.5691 428.279C23.223 433.105 12 448.124 12 465.163L12 583.327L122.765 619.572C137.886 674.4 164.223 724.542 199.237 767.371L143.31 741.642L118.708 786.865C110.574 801.846 113.261 820.387 125.319 832.425L208.852 915.996L313.044 863.187C360.636 890.209 414.117 908.053 471.247 913.78L413.668 935.077L428.279 984.431C433.105 1000.78 448.124 1012 465.163 1012L583.327 1012L619.572 901.235C674.4 886.114 724.542 859.777 767.371 824.763L741.642 880.69L786.865 905.292C801.846 913.426 820.387 910.739 832.425 898.681L915.996 815.148L863.187 710.956C890.209 663.364 908.053 609.883 913.78 552.753L935.077 610.332L984.431 595.721C1000.78 590.895 1012 575.876 1012 558.837L1012 440.673L901.235 404.428C886.114 349.6 859.777 299.458 824.763 256.629L880.69 282.358L905.292 237.135C913.426 222.154 910.739 203.613 898.681 191.575L815.148 108.004L710.956 160.813C663.364 133.791 609.883 115.947 552.753 110.22L610.332 88.9231L595.721 39.5691C590.895 23.223 575.876 12 558.837 12L440.673 12L440.673 12ZM512 204.308C681.942 204.308 819.692 342.058 819.692 512C819.692 681.923 681.942 819.692 512 819.692C342.058 819.692 204.308 681.923 204.308 512C204.308 342.058 342.058 204.308 512 204.308L512 204.308Z" id="Shape" fill="#FF9933" fill-rule="evenodd" stroke="none" clip-path="url(#clip_1)" />
    <path d="M512 247C365.87 247 247 365.87 247 512C247 658.13 365.87 777 512 777C658.13 777 777 658.13 777 512C777 365.87 658.13 247 512 247L512 247ZM597.063 293.177C595.496 298.696 594.679 301.924 593.665 305.104C591.43 312.132 589.095 319.117 586.779 326.122C584.567 332.816 584.57 332.826 577.057 333.391C579.235 335.027 580.93 336.298 583.223 338.026C578.511 344.444 577.952 354.87 565.693 353.441C567.652 354.57 569.613 355.7 572.332 357.267C569.866 361.587 568.305 366.693 564.883 369.688C561.749 372.419 556.593 372.86 552.169 374.369C553.62 375.36 555.346 376.55 557.547 378.06C552.65 387.404 548.812 397.307 535.044 398.92C538.051 400.303 539.61 401.008 541.142 401.711C539.934 409.536 532.364 417.064 524.872 419.826C524.863 419.829 524.859 419.845 524.849 419.849L604.174 419.849C623.231 419.849 638.739 435.357 638.739 454.414L638.739 569.631C638.739 588.688 623.231 604.196 604.174 604.196L419.826 604.196C400.769 604.196 385.261 588.688 385.261 569.631L385.261 454.391C385.261 435.334 400.769 419.826 419.826 419.826L514.655 419.826C514.54 419.768 514.411 419.771 514.295 419.714C523.271 382.832 541.623 350.575 563.825 320.181C538.627 348.962 521.428 382.239 509.457 418.521C502.682 413.924 498.701 399.753 502.504 393.497C503.379 392.057 506.073 391.683 507.882 390.842C503.066 384.044 503.033 375.494 508.309 365.435C510.533 366.645 512.73 367.868 515.173 369.193C506.278 354.284 521.163 347.065 524.354 335.393C527.315 337.087 529.007 338.068 532.591 340.119C524.272 329.024 532.227 323.605 537.654 317.683C540.949 314.088 546.965 309.059 551.021 306.386L559.865 312.17L558.717 302.448C559.858 300.559 562.199 299.255 565.333 298.668C575.276 296.813 585.253 295.205 597.063 293.177L597.063 293.177ZM514.656 419.826C517.547 421.393 521.185 421.186 524.872 419.826L514.656 419.826L514.656 419.826ZM454.391 477.435C441.665 477.435 431.348 487.752 431.348 500.478C431.348 513.205 441.665 523.522 454.391 523.522C467.118 523.522 477.435 513.205 477.435 500.478C477.435 487.752 467.118 477.435 454.391 477.435L454.391 477.435ZM569.609 477.435C556.882 477.435 546.565 487.752 546.565 500.478C546.565 513.205 556.882 523.522 569.609 523.522C582.335 523.522 592.652 513.205 592.652 500.478C592.652 487.752 582.335 477.435 569.609 477.435L569.609 477.435ZM396.783 627.217L627.217 627.217C633.589 627.217 638.739 632.368 638.739 638.739L638.739 717.704C604.911 738.627 565.645 751.378 523.522 753.371L523.522 684.826C523.522 678.455 518.372 673.304 512 673.304L408.304 673.304L408.304 730.283C400.377 726.492 392.692 722.312 385.261 717.726L385.261 638.739C385.261 632.368 390.411 627.217 396.783 627.217L396.783 627.217ZM362.217 661.783C368.589 661.783 373.739 666.933 373.739 673.304L373.739 707.87C373.739 708.607 373.45 709.26 373.312 709.962C365.385 704.386 357.885 698.288 350.696 691.825L350.696 673.304C350.696 666.933 355.846 661.783 362.217 661.783L362.217 661.783ZM661.783 661.783C668.154 661.783 673.304 666.933 673.304 673.304L673.304 691.825C666.115 698.288 658.615 704.386 650.688 709.962C650.55 709.248 650.261 708.607 650.261 707.87L650.261 673.304C650.261 666.933 655.411 661.783 661.783 661.783L661.783 661.783ZM569.609 673.305C556.882 673.305 546.565 683.621 546.565 696.348C546.565 709.075 556.882 719.391 569.609 719.391C582.335 719.391 592.652 709.075 592.652 696.348C592.652 683.621 582.335 673.305 569.609 673.305L569.609 673.305Z" id="Shape" fill="#FF9933" fill-rule="evenodd" stroke="none" clip-path="url(#clip_1)" />
  </g>
</svg>